/vscmnt/brussel_pixiu_data/_data_brussel/112/vsc11236/PredSimResults/SUBJ11mtu3D/worker8.mot
version=1
nRows=7
nColumns=50
inDegrees=yes
endheader
                time	         pelvis_tilt	         pelvis_list	     pelvis_rotation	           pelvis_tx	           pelvis_ty	           pelvis_tz	       hip_flexion_r	     hip_adduction_r	      hip_rotation_r	        knee_angle_r	       ankle_angle_r	         mtp_angle_r	       hip_flexion_l	     hip_adduction_l	      hip_rotation_l	        knee_angle_l	       ankle_angle_l	         mtp_angle_l	    lumbar_extension	      lumbar_bending	     lumbar_rotation	 ercspn_r/activation	 intobl_r/activation	 extobl_r/activation	    abd_r/activation	    add_r/activation	hamstrings_r/activation	bifemsh_r/activation	glut_max_r/activation	iliopsoas_r/activation	rect_fem_r/activation	  vasti_r/activation	gastroc_r/activation	 soleus_r/activation	tib_ant_r/activation	 ercspn_l/activation	 intobl_l/activation	 extobl_l/activation	    abd_l/activation	    add_l/activation	hamstrings_l/activation	bifemsh_l/activation	glut_max_l/activation	iliopsoas_l/activation	rect_fem_l/activation	  vasti_l/activation	gastroc_l/activation	 soleus_l/activation	tib_ant_l/activation	
          1.95040758	         -3.56003533	          0.63186502	         -4.52253054	          2.14544833	          0.94265791	          0.00663990	        -13.22204500	         -2.45548590	         -2.60517171	        -11.36320416	         12.16818210	         28.41246006	         31.27509415	         -2.29091516	         -3.98811786	        -10.18915035	          2.31486903	          0.25842092	        -14.29051761	          1.59715087	          4.12905886	          0.02065474	          0.01000002	          0.01000001	          0.03947421	          0.01480398	          0.01150497	          0.17743600	          0.01839549	          0.02108125	          0.01216718	          0.01000004	          0.13383629	          0.30200465	          0.01334157	          0.03309447	          0.20213350	          0.05220913	          0.01000000	          0.19464729	          0.03401516	          0.12068502	          0.08270782	          0.07929878	          0.03575754	          0.01490777	          0.01000001	          0.01000000	          0.39985649	
          1.96341029	         -3.64421049	          0.68913942	         -4.65788056	          2.16348602	          0.94073452	          0.00550515	        -13.86976452	         -2.70448281	         -2.85584264	        -11.95341479	         11.37838360	         30.12660635	         30.96503865	         -2.15100249	         -4.02453234	        -11.35787170	          1.85579856	          0.21191385	        -13.85449614	          1.12900307	          4.36968964	          0.02438554	          0.01000001	          0.01000010	          0.03244335	          0.01216729	          0.02046367	          0.14583240	          0.01587131	          0.01732647	          0.01000011	          0.01000008	          0.10999835	          0.28189314	          0.01096527	          0.02719995	          0.16613095	          0.04291002	          0.04272442	          0.17568165	          0.04921327	          0.09918952	          0.10537424	          0.06517465	          0.02938869	          0.01225251	          0.01216721	          0.01216712	          0.43973103	
          1.97641301	         -3.71137547	          0.74476707	         -4.77247841	          2.18176921	          0.93916647	          0.00429615	        -14.37003330	         -2.96433677	         -3.11829149	        -12.83276336	         10.44060022	         31.90401009	         30.63431177	         -2.02923845	         -4.09728073	        -12.55299864	          1.30827716	          0.20515401	        -13.40012136	          0.66186914	          4.59696267	          0.03559607	          0.01000000	          0.01000002	          0.02666478	          0.01000021	          0.01681887	          0.11985781	          0.01304445	          0.01424048	          0.01000057	          0.01000160	          0.09040624	          0.25726429	          0.01000000	          0.03284368	          0.13654091	          0.03526720	          0.09221411	          0.22101925	          0.04044782	          0.08152263	          0.12444834	          0.05356622	          0.02415421	          0.01007022	          0.01000008	          0.01000001	          0.49890910	
          1.98941573	         -3.76124430	          0.78705232	         -4.86226854	          2.20004522	          0.93811586	          0.00301589	        -14.62556329	         -3.22471955	         -3.38960712	        -14.13780573	          9.33958101	         33.74014201	         30.40154692	         -1.93038386	         -4.22488859	        -13.91001853	          0.65824094	          0.16722770	        -12.95879597	          0.21024132	          4.80603322	          0.06305378	          0.01000001	          0.01000002	          0.02191544	          0.06060170	          0.02104517	          0.09850962	          0.01216708	          0.01170416	          0.01000014	          0.01216715	          0.07430373	          0.22942204	          0.01000000	          0.03552473	          0.11222123	          0.02898566	          0.11795932	          0.27395543	          0.04008461	          0.06700244	          0.11903415	          0.04402539	          0.01985207	          0.06015021	          0.01000002	          0.01000000	          0.54758455	
          2.00241845	         -3.79355726	          0.81461263	         -4.92853929	          2.21822955	          0.93765769	          0.00168025	        -14.56979343	         -3.48681396	         -3.67473231	        -15.97209261	          8.07896660	         35.57612506	         30.22084959	         -1.84719012	         -4.37297486	        -15.41705742	          0.25016004	          0.11724258	        -12.53696477	         -0.22305813	          4.99513040	          0.08432869	          0.01000001	          0.01000002	          0.01801202	          0.13228143	          0.02831950	          0.08096382	          0.01000004	          0.01000053	          0.01000008	          0.01000017	          0.06106929	          0.18855907	          0.01000000	          0.02919750	          0.09223320	          0.02382295	          0.14354078	          0.30963056	          0.04448769	          0.05506850	          0.11920178	          0.03618391	          0.01631619	          0.11200334	          0.01000003	          0.01000001	          0.55969778	
          2.01542116	         -3.80992020	          0.82810421	         -4.96913067	          2.23618648	          0.93788023	          0.00031342	        -14.11429170	         -3.75518767	         -3.97644708	        -18.47033014	          6.68003317	         37.26437681	         30.01816398	         -1.76587006	         -4.49650002	        -16.95742517	          0.20744154	          0.06985280	        -12.14639891	         -0.63948915	          5.15921980	          0.10584760	          0.01000002	          0.01000002	          0.01480385	          0.18454486	          0.04522341	          0.06654316	          0.01000000	          0.01000116	          0.01000002	          0.01000000	          0.05019207	          0.15497429	          0.01000000	          0.02399709	          0.07580529	          0.01957978	          0.16066541	          0.33311585	          0.04645361	          0.04526015	          0.12314005	          0.02973909	          0.01341010	          0.14197347	          0.01000003	          0.01000000	          0.53516970	
          2.02842388	         -3.81146232	          0.82771040	         -4.98122764	          2.25378344	          0.93880587	         -0.00105063	        -13.20258236	         -4.03377074	         -4.31418115	        -21.70364689	          5.17248467	         38.55076217	         29.75064234	         -1.67814563	         -4.57051502	        -18.44046685	          0.52187048	          0.03875723	        -11.79839269	         -1.04219546	          5.29259035	          0.10974430	          0.01000012	          0.01000003	          0.01216710	          0.23319831	          0.05233702	          0.05469102	          0.01000000	          0.01000022	          0.01000001	          0.01000000	          0.04125222	          0.12737139	          0.01000001	          0.01972292	          0.06230340	          0.01609237	          0.16859740	          0.35485119	          0.04989002	          0.03719885	          0.11741822	          0.02444218	          0.01102163	          0.15618393	          0.01000002	          0.01000000	          0.47853944	
